<?xml version="1.0" standalone="no"?>
<!DOCTYPE svg PUBLIC "-//W3C//DTD SVG 20010904//EN"
 "http://www.w3.org/TR/2001/REC-SVG-20010904/DTD/svg10.dtd">
<svg version="1.0" xmlns="http://www.w3.org/2000/svg"
 width="300.000000pt" height="300.000000pt" viewBox="0 0 300.000000 300.000000"
 preserveAspectRatio="xMidYMid meet">
<metadata>
Created by potrace 1.10, written by Peter Selinger 2001-2011
</metadata>
<g transform="translate(0.000000,300.000000) scale(0.100000,-0.100000)"
fill="#000000" stroke="none">
<path d="M1210 2721 c-95 -29 -180 -125 -180 -203 0 -64 82 -138 153 -138 82
0 157 47 157 98 0 70 -84 104 -133 53 l-22 -24 25 17 c33 22 73 20 94 -3 60
-67 -80 -144 -174 -96 -57 30 -77 94 -46 153 46 87 179 136 270 98 138 -57
200 -231 131 -366 -40 -80 -72 -117 -124 -148 -40 -23 -57 -27 -126 -26 -70 0
-163 16 -260 45 -69 20 -212 28 -265 14 -29 -8 -55 -17 -59 -20 -3 -4 8 -3 24
2 71 19 196 7 360 -37 137 -36 170 -42 231 -38 118 8 196 67 258 198 75 158
10 337 -149 411 -41 19 -119 24 -165 10z"/>
<path d="M1950 2544 c-111 -30 -222 -120 -271 -220 -22 -47 -48 -149 -49 -193
0 -36 9 -21 25 44 53 201 204 326 449 370 l71 13 -85 0 c-47 1 -110 -6 -140
-14z"/>
<path d="M2078 2444 c-171 -40 -296 -173 -329 -351 -14 -71 -6 -174 16 -227
17 -41 32 -45 17 -5 -44 117 8 324 107 431 75 83 189 127 381 148 58 7 107 14
110 17 11 10 -251 -1 -302 -13z"/>
<path d="M1379 2301 c-53 -60 -158 -64 -357 -14 -90 22 -129 27 -242 27 -140
0 -211 -12 -321 -53 -91 -34 -103 -53 -17 -26 163 52 385 57 556 13 63 -16
118 -22 199 -22 109 -1 112 0 149 29 33 27 73 75 62 75 -2 0 -15 -13 -29 -29z"/>
<path d="M2185 2316 c-63 -20 -104 -45 -156 -93 -122 -114 -161 -284 -97 -425
67 -147 238 -222 379 -169 62 24 141 87 164 132 16 29 20 116 7 135 -27 39
-92 56 -125 32 -15 -11 -10 -12 32 -10 39 3 53 0 70 -17 26 -26 28 -79 4 -128
-34 -72 -158 -143 -249 -143 -58 0 -143 39 -194 89 -85 82 -111 206 -70 326
58 169 213 267 398 251 187 -15 303 -101 363 -269 34 -96 39 -321 9 -437 -57
-222 -208 -415 -408 -518 -188 -98 -363 -112 -572 -46 -194 61 -315 146 -570
403 -212 213 -296 280 -408 326 -154 63 -310 81 -411 48 -108 -34 -181 -135
-181 -247 0 -58 25 -135 47 -149 6 -4 -1 15 -13 41 -63 128 11 296 147 336
105 31 246 14 388 -47 119 -52 184 -100 305 -226 294 -305 367 -369 519 -451
106 -57 189 -86 308 -105 91 -15 118 -16 192 -5 338 48 609 291 697 626 26
100 28 305 4 403 -57 233 -209 352 -448 350 -50 0 -109 -6 -131 -13z"/>
<path d="M338 2096 c-83 -34 -142 -89 -164 -151 -5 -15 1 -12 23 11 16 17 47
43 69 57 42 28 184 83 249 97 34 7 29 8 -40 9 -62 0 -93 -5 -137 -23z"/>
<path d="M677 2089 c-38 -9 -97 -36 -97 -44 0 -2 19 3 43 12 65 25 224 22 307
-6 155 -53 309 -157 533 -361 73 -66 177 -139 243 -170 61 -30 186 -60 244
-59 23 0 23 1 5 8 -11 5 -42 12 -70 16 -117 17 -252 101 -443 278 -181 167
-369 284 -517 322 -64 16 -187 18 -248 4z"/>
<path d="M1370 1951 c103 -132 230 -160 279 -64 14 28 14 45 -2 67 -12 16 -13
14 -9 -17 3 -27 -1 -38 -19 -51 -47 -33 -96 -19 -201 56 -37 26 -70 48 -74 48
-3 0 8 -18 26 -39z"/>
<path d="M440 1919 c-30 -5 -58 -10 -63 -12 -4 -1 68 -2 160 -2 192 0 246 -11
380 -75 114 -54 193 -110 298 -210 232 -222 400 -332 585 -385 92 -26 236 -24
313 4 144 51 281 171 312 271 4 14 -11 -2 -33 -36 -88 -135 -255 -224 -422
-224 -203 0 -426 118 -691 368 -162 152 -301 238 -454 283 -82 23 -297 34
-385 18z"/>
<path d="M355 1701 c-53 -24 -92 -65 -105 -110 -17 -62 -11 -68 18 -16 38 69
108 105 213 108 41 1 85 -1 99 -5 14 -5 3 3 -25 17 -62 30 -142 33 -200 6z"/>
<path d="M485 1580 c-53 -8 -115 -34 -115 -49 0 -5 21 3 48 16 43 23 55 24
147 20 175 -9 296 -60 418 -175 108 -103 185 -233 226 -381 28 -102 25 -274
-6 -343 -34 -76 -71 -115 -134 -147 -73 -37 -145 -46 -229 -31 -232 42 -380
236 -325 426 39 136 147 217 290 218 60 0 78 -4 118 -27 122 -72 148 -200 60
-298 -41 -46 -64 -49 -99 -13 -21 20 -25 33 -22 64 2 21 0 36 -4 34 -5 -3 -8
-23 -8 -45 0 -31 7 -47 29 -70 16 -16 36 -29 44 -29 53 0 137 116 137 189 -1
77 -66 167 -146 203 -65 28 -121 32 -193 13 -161 -42 -253 -159 -254 -325 0
-64 4 -85 31 -141 76 -160 264 -261 454 -246 84 7 143 33 203 88 80 74 115
165 115 302 0 118 -21 200 -87 335 -106 217 -290 369 -488 402 -84 14 -158 18
-210 10z"/>
<path d="M2780 1209 c-57 -91 -215 -225 -340 -289 -158 -80 -304 -115 -480
-114 -149 0 -235 19 -337 74 -53 28 -69 30 -35 3 37 -29 115 -64 199 -89 202
-59 472 -21 682 97 126 71 262 199 314 298 34 62 32 76 -3 20z"/>
<path d="M1318 948 c34 -113 43 -354 17 -444 -31 -110 -102 -193 -189 -220
-26 -8 -33 -13 -19 -13 42 -2 129 39 165 76 20 21 49 64 63 96 62 134 45 387
-37 550 -10 20 -20 37 -22 37 -2 0 8 -37 22 -82z"/>
</g>
</svg>
